<svg xmlns="http://www.w3.org/2000/svg" width="50" height="35" viewBox="0 0 50 35">
	<style>.a{fill:#CCC;}</style>
	<path d="M10.7 14c2.3 1 4.7 2 7 2.9 1.7 0.7 3.3 1.4 5 2.1 0.6 0.3 1.6 0.9 2.3 0.9 0.6 0 1.4-0.5 2-0.7 1.6-0.7 3.2-1.4 4.8-2 2.5-1 5-2.1 7.5-3.1 1.2-0.5 0.7-2.4-0.5-1.9 -4.7 2-9.3 3.9-14 5.9 0.4-0.2 0.6 0.1 0.1-0.2 -0.5-0.2-1-0.4-1.6-0.7 -1.7-0.7-3.3-1.4-5-2.1 -2.3-1-4.7-2-7-2.9C10.1 11.5 9.6 13.5 10.7 14L10.7 14z" class="a"/>
	<path d="M10.7 19.1c2.3 1 4.7 2 7 2.9 1.7 0.7 3.3 1.4 5 2.1C23.4 24.4 24.3 25 25 25c0.6 0 1.4-0.5 2-0.7 1.6-0.7 3.2-1.4 4.8-2 2.5-1 5-2.1 7.5-3.1 1.2-0.5 0.7-2.4-0.5-1.9 -4.7 2-9.3 3.9-14 5.9 0.4-0.2 0.6 0.1 0.1-0.2 -0.5-0.2-1-0.4-1.6-0.7 -1.7-0.7-3.3-1.4-5-2.1 -2.3-1-4.7-2-7-2.9C10.1 16.7 9.6 18.6 10.7 19.1L10.7 19.1z" class="a"/>
</svg>