<?xml version="1.0" encoding="utf-8"?>
<!-- Generator: Adobe Illustrator 16.0.0, SVG Export Plug-In . SVG Version: 6.00 Build 0)  -->
<svg version="1.2" baseProfile="tiny" id="Layer_1" xmlns="http://www.w3.org/2000/svg" xmlns:xlink="http://www.w3.org/1999/xlink"
	 x="0px" y="0px" width="864px" height="864px" viewBox="0 0 864 864" xml:space="preserve">
<path fill-rule="evenodd" fill="#C6C6C6" d="M796.562,475.752c0,56.603-163.219,102.489-364.561,102.489
	c-201.342,0-364.563-45.887-364.563-102.489c0-56.602,163.22-102.488,364.563-102.488c61.279,0,119.03,4.251,169.723,11.76
	c41.206,6.105-103.828,55.88-73.846,65.761c25.146,8.284,227.256-23.806,242.056-13.554
	C787.103,449.123,796.562,462.128,796.562,475.752z"/>
<g>
	<path fill-rule="evenodd" fill="#848484" d="M247.124,429.337c0-0.838,0-1.676,0-2.514c0.243-0.147,0.308-0.399,0.374-0.648
		c0.279-1.048,0.815-1.954,1.502-2.782c3.805-4.59,7.307-9.409,10.805-14.232c3.99-5.501,7.974-11.006,12.41-16.164
		c4.853-5.642,10.174-10.762,16.458-14.81c4.6-2.963,9.466-5.358,14.785-6.747c2.21-0.576,4.428-1.131,6.656-1.64
		c0.768-0.175,1.342-0.525,1.816-1.146c0.684-0.895,1.428-1.744,2.139-2.618c3.254-3.994,6.444-8.041,9.91-11.858
		c3.546-3.904,7.384-7.455,11.929-10.189c3.653-2.199,7.494-4.01,11.479-5.503c8.352-3.13,16.868-5.779,25.311-8.646
		c6.765-2.296,13.598-4.391,20.266-6.968c3.816-1.475,7.568-3.095,11.224-4.932c4.694-2.36,8.856-5.492,12.83-8.894
		c4.746-4.062,9.247-8.397,13.992-12.464c3.888-3.331,7.487-6.98,11.269-10.43c2.834-2.585,5.692-5.145,9.07-7.019
		c4.627-2.567,8.967-5.574,13.291-8.605c2.668-1.869,5.234-3.865,7.473-6.248c0.904-0.964,1.85-1.885,2.855-2.741
		c3.299-2.808,7.002-4.785,11.317-5.517c0.437-0.074,0.909-0.003,1.308-0.271c1.354,0,2.705,0,4.059,0
		c0.208,0.197,0.479,0.163,0.729,0.194c2.196,0.267,4.284,0.885,6.226,1.956c2.938,1.622,5.348,3.682,6.691,6.928
		c1.854,4.474,5.271,7.285,9.953,8.564c2.058,0.562,4.152,0.884,6.267,1.104c2.433,0.254,4.869,0.462,7.269,0.966
		c6.112,1.283,11.581,3.856,16.243,8.057c2.328,2.097,3.81,4.678,4.362,7.769c0.412,2.307,0.306,4.623-0.037,6.925
		c-0.32,2.164-0.736,4.313-1.07,6.477c-0.566,3.667-1.416,7.26-2.658,10.761c-2.247,6.33-5.531,12.108-9.315,17.625
		c-3.409,4.972-7.182,9.667-10.97,14.349c-1.879,2.322-3.376,4.846-4.326,7.7c-1.363,4.1-3.076,8.06-5.029,11.911
		c-3.939,7.765-8.823,14.895-14.51,21.479c-1.096,1.269-2.156,2.56-3.104,3.946c-2.639,3.864-4.432,8.127-5.941,12.525
		c-0.461,1.341-0.863,2.688-1.045,4.105c-0.176,1.37-0.446,2.732-0.835,4.063c-0.335,1.145-0.648,2.302-1.59,3.142
		c-0.18,0.16-0.216,0.392-0.286,0.603c-1.701,5.101-3.683,10.1-5.479,15.166c-0.807,2.276-1.593,4.562-1.891,6.975
		c-0.396,3.202-0.014,6.24,1.959,8.919c1.326,1.803,3.066,3.119,5.051,4.105c6.061,3.013,11.902,6.413,17.754,9.805
		c4.316,2.502,8.594,5.079,13.05,7.331c4.928,2.49,10.031,2.859,15.265,1.07c2.561-0.875,5.139-1.688,7.753-2.376
		c4.046-1.065,8.099-2.154,12.28-2.514c4.908-0.422,8.864,1.217,11.361,5.677c0.35,0.624,0.855,1.041,1.461,1.359
		c4.103,2.157,8.064,4.572,12.221,6.634c1.408,0.698,2.801,1.444,4.01,2.476c0,0.387,0,0.773,0,1.16
		c-0.1,0.326-0.432,0.582-0.396,0.93c0.123,1.174-0.609,1.933-1.291,2.692c-1.008,1.125-2.302,1.611-3.814,1.488
		c-0.875-0.071-1.715-0.293-2.512-0.657c-4.166-1.91-8.556-3.209-12.871-4.712c-0.15-0.053-0.302-0.116-0.559,0
		c-0.232,0.386-0.592,0.795-0.791,1.335c0.406,0.53,0.917,0.929,1.42,1.32c1.523,1.182,2.576,2.686,3.209,4.495
		c0.309,0.882,0.641,1.755,0.91,2.647c0.268,0.883,0.637,1.74,0.797,2.722c-2,0.389-3.88,1.077-5.854,1.392
		c-1.084,0.172-2.096,0.029-3.072-0.525c-1.605-0.913-3.334-1.525-5.139-1.918c-4.553-0.993-9.101-0.564-13.633,0.125
		c-2.313,0.352-4.417,1.375-6.549,2.287c-6.361,2.72-13.014,3.527-19.859,2.937c-4.671-0.403-9.23-1.408-13.68-2.859
		c-12.86-4.195-25.559-8.833-38.027-14.09c-1.332-0.562-2.364-1.457-3.096-2.663c-2.601-4.28-4.336-8.902-5.289-13.814
		c-0.479-2.465-0.895-4.94-1.346-7.411c-0.035-0.198,0.02-0.467-0.352-0.546c-0.527,0.819-1.053,1.663-1.604,2.489
		c-0.803,1.205-1.515,2.48-2.547,3.514c-1.252,1.253-2.512,2.5-3.808,3.706c-11.729,10.918-25.182,18.931-40.445,23.844
		c-2.507,0.808-4.556,2.34-6.755,3.694c0.158,0.807,0.354,1.536,0.697,2.22c0.43,0,0.814,0.018,1.198-0.003
		c2.121-0.106,4.243-0.219,6.364-0.335c2.828-0.154,5.658-0.288,8.484-0.477c2.955-0.196,5.891-0.652,8.852-0.75
		c1.896-0.063,3.807-0.173,5.672,0.304c1.606,0.41,3.047,1.212,4.494,1.988c1.938,1.04,3.928,1.946,6.109,2.334
		c1.715,0.305,3.458,0.354,5.192,0.458c4.177,0.25,8.356,0.431,12.516,0.952c2.588,0.324,4.937,1.202,7.022,2.749
		c2.27,1.684,4.062,3.751,4.979,6.485c0.755,2.25,0.396,4.315-0.981,6.222c-0.779,1.077-1.391,1.271-2.674,0.851
		c-0.804-0.263-1.517-0.7-2.23-1.143c-1.785-1.107-3.439-2.392-5.007-3.781c-2.429-2.152-5.288-3.106-8.478-3.26
		c-1.769-0.085-3.533-0.228-5.301-0.321c-0.642-0.034-1.289-0.026-1.93,0.003c-0.645,0.03-1.159,0.272-1.478,0.904
		c-0.305,0.604-0.741,1.127-1.217,1.615c-1.105,1.136-2.405,1.538-3.96,1.148c-1.134-0.283-2.193-0.755-3.238-1.248
		c-2.961-1.396-6.061-1.61-9.252-1.205c-3.139,0.399-6.189,1.21-9.25,1.972c-0.191,0.048-0.475-0.02-0.551,0.368
		c0.894,0.464,1.804,0.936,2.712,1.409c1.741,0.907,3.522,1.745,5.172,2.818c2.409,1.565,4.489,3.441,5.784,6.081
		c1.98,4.037,0.525,9.729-3.482,12.065c-0.414,0.242-0.837,0.467-1.256,0.699c-0.58,0-1.16,0-1.74,0
		c-0.066-0.125-0.189-0.161-0.309-0.208c-1.266-0.496-1.808-1.469-1.85-2.783c-0.029-0.907,0.02-1.813,0.273-2.68
		c0.467-1.587,0.127-3.053-0.541-4.491c-0.367-0.791-0.934-1.334-1.75-1.701c-5.732-2.579-11.616-4.753-17.604-6.655
		c-0.525-0.167-1.057-0.253-1.611-0.27c-1.725-0.053-3.31,0.399-4.795,1.25c-2.914,1.668-5.959,3.049-9.118,4.178
		c-9.122,3.261-18.53,3.876-28.095,3.023c-4.141-0.369-8.242-1.012-12.31-1.858c-8.515-1.774-16.935-3.894-25.13-6.847
		c-7.977-2.875-15.689-6.354-23.268-10.141c-7.2-3.599-14.272-7.44-21.329-11.31c-1.839-1.009-3.58-2.169-5.216-3.482
		c-4.26-3.421-7.524-7.565-9.233-12.822c-0.916-2.817-1.397-5.705-0.986-8.66c0.508-3.656,1.874-6.93,4.491-9.635
		c1.362-1.408,2.333-3.078,2.682-5.048c0.18-1.018,0.192-2.041,0.135-3.076c-0.14-2.542-0.02-5.087-0.048-7.63
		c-0.004-0.342,0.102-0.71-0.161-1.048c-0.104-0.03-0.223-0.077-0.346-0.1c-4.897-0.875-8.881-3.309-12.058-7.1
		c-1.832-2.186-3.46-4.491-4.13-7.335C247.392,429.62,247.311,429.437,247.124,429.337z"/>
</g>
</svg>
